# xmcd
#
# Track frame offsets: 
#        150
#        20783
#        39232
#        59318
#        77992
#        98396
#        117624
#        138184
#        160130
#        183072
#
# Disc length: 2659 seconds
#
# Revision: 0
# Processed by: cddbd v1.5.2PL0 Copyright (c) Steve Scherf et al.
# Submitted via: ExactAudioCopy v0.95b4
#
DISCID=770a610a
DTITLE=Willy DeVille - Backstreets of Desire
DYEAR=1900
DGENRE=
TTITLE0=Empty Heart
TTITLE1=Lonely Hunter
TTITLE2=Even While I Sleep
TTITLE3=VooDoo Charm
TTITLE4=Come to Poppa
TTITLE5=Chemical Warfare
TTITLE6=I Call Your Name
TTITLE7=I Can Only Give You Everything
TTITLE8=Bamboo Road
TTITLE9=All in the Name of Love
EXTD=
EXTT0=
EXTT1=
EXTT2=
EXTT3=
EXTT4=
EXTT5=
EXTT6=
EXTT7=
EXTT8=
EXTT9=
PLAYORDER=
